Coordinates
version=1
nRows=14
nColumns=24
inDegrees=yes

Units are S.I. units (second, meters, Newtons, ...)
Angles are in degrees.

endheader
time	pelvis_tilt	pelvis_list	pelvis_rotation	pelvis_tx	pelvis_ty	pelvis_tz	hip_flexion_r	hip_adduction_r	hip_rotation_r	knee_angle_r	ankle_angle_r	subtalar_angle_r	mtp_angle_r	hip_flexion_l	hip_adduction_l	hip_rotation_l	knee_angle_l	ankle_angle_l	subtalar_angle_l	mtp_angle_l	lumbar_extension	lumbar_bending	lumbar_rotation
      5.53000000	     -8.95866503	     -8.54997409	      3.77133650	     -0.75929386	     -0.01534268	      2.08511459	      2.44193363	     14.51410553	     -8.82776459	     -3.24395875	     11.72215847	      0.55155540	    -58.84133908	     36.93325644	     -5.83081052	      2.03000508	    -41.47813516	     -3.62979282	     -4.61813388	     36.19768784	      3.98500092	      7.46246811	     -0.78583136
      5.54000000	     -9.00112181	     -8.26396166	      3.87143824	     -0.74776357	     -0.01629227	      2.08545531	      1.49745706	     14.33081957	     -9.03141006	     -2.86478181	     12.21422779	      0.79260217	    -58.83461318	     37.30826240	     -5.32889256	      1.42475577	    -38.44273698	     -3.47637112	     -3.90782531	     35.10318287	      3.86400471	      7.14043817	     -0.69995857
      5.55000000	     -9.28534107	     -8.04201936	      3.80488440	     -0.73623744	     -0.01761494	      2.08588942	      0.88479473	     14.19149638	     -9.15529140	     -2.64565583	     12.71790117	      1.06095901	    -58.77386416	     37.82830443	     -4.98351024	      0.62706743	    -35.26234962	     -3.61510194	     -3.18743190	     34.63902312	      3.98043630	      6.89213543	     -0.47739942
      5.56000000	     -9.33644336	     -7.79560143	      3.89390002	     -0.72452372	     -0.01882643	      2.08597839	      0.01380965	     14.01354849	     -9.48016186	     -2.42236554	     13.30738438	      1.50271705	    -59.11514654	     37.97432772	     -4.52122612	     -0.05459680	    -32.01907217	     -3.62569620	     -2.33593854	     32.72048262	      3.88106825	      6.63030841	     -0.41864035
      5.57000000	     -9.48188764	     -7.60355268	      3.86752171	     -0.71272598	     -0.02023803	      2.08616492	     -0.69616947	     13.88013360	     -9.75441775	     -2.34321818	     13.82779641	      1.95765246	    -58.99257068	     38.11318418	     -4.19531424	     -0.87567709	    -28.68592643	     -3.91212583	     -1.54020072	     32.34466103	      3.87705723	      6.42957727	     -0.25100131
      5.58000000	     -9.46627779	     -7.39678730	      3.92647501	     -0.70068378	     -0.02157176	      2.08612842	     -1.57185923	     13.71515403	    -10.15117760	     -2.30792062	     14.36001307	      2.57726675	    -58.84081842	     37.97354289	     -3.79470948	     -1.55898701	    -25.36479290	     -4.14128964	     -0.79242811	     31.72349564	      3.73890573	      6.22106356	     -0.18102506
      5.59000000	     -9.37377681	     -7.21045035	      4.05551672	     -0.68855943	     -0.02291261	      2.08594535	     -2.45679250	     13.55526070	    -10.68385421	     -2.40909824	     14.89378279	      3.27342263	    -58.68210987	     37.71285176	     -3.37148377	     -2.13700824	    -22.17495150	     -4.26921540	     -0.01388352	     30.76657932	      3.52331746	      6.03217535	     -0.21216098
      5.60000000	     -9.44979688	     -7.03909435	      3.96590549	     -0.67627667	     -0.02440350	      2.08591708	     -3.07064440	     13.35994659	    -11.05881515	     -2.74741366	     15.43248730	      4.04273692	    -58.45637175	     37.56590234	     -3.08339310	     -2.87016805	    -19.14855632	     -4.29848206	      0.77523302	     30.19958679	      3.49073342	      5.87398268	     -0.02214081
      5.61000000	     -9.27152503	     -6.79176906	      4.11121113	     -0.66372891	     -0.02566082	      2.08548922	     -3.93090474	     13.06288373	    -11.72886271	     -3.15060053	     15.98424558	      5.07107951	    -58.12055311	     37.08572809	     -2.58388740	     -3.28763623	    -16.30831356	     -4.11336793	      1.51888738	     29.02178219	      3.23432447	      5.63286865	     -0.12481446
      5.62000000	     -9.25759685	     -6.49615810	      4.03781215	     -0.65098509	     -0.02696281	      2.08517835	     -4.52743991	     12.64902493	    -12.16280893	     -3.79493091	     16.49828406	      6.08735250	    -57.56859756	     36.71381957	     -2.14382251	     -3.78006989	    -13.76453445	     -3.66939678	      2.28757979	     26.88676026	      3.15463420	      5.35638740	      0.02100730
      5.63000000	     -9.26477108	     -6.24781704	      3.98688852	     -0.63803726	     -0.02831317	      2.08477255	     -5.03549674	     12.23851026	    -12.68084447	     -4.58201081	     16.97691853	      7.27612554	    -57.02919300	     36.36276063	     -1.75351384	     -4.29235537	    -11.53156077	     -3.26269803	      3.18371915	     26.20523833	      3.13336357	      5.12170076	      0.05103757
      5.64000000	     -9.22105536	     -5.93462854	      3.90286591	     -0.62489094	     -0.02953602	      2.08431520	     -5.52512280	     11.70729781	    -13.15817211	     -5.55778794	     17.40847496	      8.54774628	    -56.16559399	     35.93071884	     -1.31310985	     -4.70578775	     -9.70320206	     -2.82793077	      3.90909506	     25.00744259	      3.07097897	      4.82217823	      0.08959860
      5.65000000	     -9.24184591	     -5.61334204	      3.67789217	     -0.61147775	     -0.03073398	      2.08399708	     -5.89772350	     11.13741746	    -13.27314312	     -6.65801420	     17.48745958	      9.51453295	    -53.80845194	     35.59099422	     -0.92917922	     -4.91551332	     -8.47989062	     -2.04940968	      4.41198430	     21.76648695	      3.10022361	      4.50903679	      0.33025459
      5.66000000	     -9.38825791	     -5.43827541	      3.40200916	     -0.59775935	     -0.03216782	      2.08370878	     -6.06280234	     10.65178051	    -13.46983148	     -7.91411962	     17.72015787	     10.79680729	    -53.11998746	     35.51386892	     -0.74574758	     -5.27611665	     -7.88469878	     -1.50150381	      4.96189100	     21.53763693	      3.32116261	      4.34292780	      0.53455801
